<svg version="1.1" xmlns="http://www.w3.org/2000/svg" xmlns:xlink="http://www.w3.org/1999/xlink" width="325.1094" height="239.05436" viewBox="0,0,325.1094,239.05436"><g transform="translate(-52.475,-17.58156)"><g data-paper-data="{&quot;isPaintingLayer&quot;:true}" fill-rule="nonzero" stroke-width="5" stroke-linecap="round" stroke-linejoin="miter" stroke-miterlimit="10" stroke-dasharray="" stroke-dashoffset="0" style="mix-blend-mode: normal"><path d="M94,43.73724l5,23l-26,7l-2,40l35,-12l-3,29l-47,3l-1,-82z" fill="#ff1c1c" stroke="#000000"/><path d="M138,33.73724l17,34l-24,14l25,39l-13,8l-25,-40l-1,40l-11,2l5,-82z" fill="#ff1c1c" stroke="#000000"/><path d="M126,61.73724l8,-5" fill="#ffffff" stroke="#ffffff"/><path d="M150,48.73724l24,-15l30,78l-18,10l-17,-35h-16l-6,11l-14,-16l19,-11z" fill="#ff1c1c" stroke="#000000"/><path d="M167,50.73724l-2,17" fill="none" stroke="#ffffff"/><path d="M192,73.73724l13,-9l-17,-4l-7,-13h54v12l-21,20l40,1v20l-51,3z" fill="#ff1c1c" stroke="#000000"/><path d="M259,112.73724l5,-45l-21,-32l10,-9l17,34l11,-39l19,14l-27,48l-1,25z" fill="#ff1c1c" stroke="#000000"/><path d="M149,181.73724v33l-49,16l3,-69z" fill="#ff1c1c" stroke="#000000"/><path d="M112,182.73724l17,13" fill="none" stroke="#ffffff"/><path d="M148,211.73724v-28l-9,-10l14,-24l33,15l-7,28l-19,-2l31,29l-24,4l-12,-11l-1,18l-17,-10z" fill="#ff1c1c" stroke="#000000"/><path d="M158,169.73724l7,3" fill="none" stroke="#ffffff"/><path d="M206,178.73724h-11v-14l9,-1l38,3v10h-25v32l25,-1v13l-51,-7l1,-13h16z" fill="#ff1c1c" stroke="#000000"/><path d="M247,175.73724l14,-9l11,40l12,-39l18,7l-31,61z" fill="#ff1c1c" stroke="#000000"/><path d="M299,185.73724l25,-12l3,17l-24,8v11l16,-1v17l-16,-4v19l30,-4l-2,11l-42,-1l1,-45z" fill="#ff1c1c" stroke="#000000"/><path d="M338,243.73724l-8,-66l22,-3l2,29h-11l30,32l-10,3l-12,-12l-4,25z" fill="#ff1c1c" stroke="#000000"/><path d="M339,185.73724l7,5" fill="none" stroke="#ffffff"/><path d="M288,201.73724l8,-14" fill="none" stroke="#000000"/></g></g></svg>