<svg version="1.1" xmlns="http://www.w3.org/2000/svg" xmlns:xlink="http://www.w3.org/1999/xlink" width="538.96707" height="164.68188" viewBox="0,0,538.96707,164.68188"><g transform="translate(126.68757,-55.39548)"><g data-paper-data="{&quot;isPaintingLayer&quot;:true}" fill-rule="nonzero" stroke-linejoin="miter" stroke-miterlimit="10" stroke-dasharray="" stroke-dashoffset="0" style="mix-blend-mode: normal"><path d="M-125.58709,83.54955l66,-22l37,48l-23,22l-19,-39l-39,29l18,62l28,-30l-23,-20l9,-17l51,58l-87,44z" fill="#4e00ff" stroke="#000000" stroke-width="2" stroke-linecap="round"/><path d="M-32.58709,159.54955l38,-84l38,119h-24l-13,-51l-29,57l-12,-1h-11l6,-16z" fill="#4e00ff" stroke="#000000" stroke-width="2" stroke-linecap="round"/><path d="M7.41291,129.54955l-11,1l3,-17z" fill="#ffffff" stroke="#000000" stroke-width="2" stroke-linecap="round"/><path d="M22.91291,131.04955l-4,-16l1,-42l28,42l20,-47l11,125l-16,4l1,-61l-13,19l-13,-29l-1,41" fill="#4e00ff" stroke="#000000" stroke-width="2" stroke-linecap="round"/><path d="M71.41291,95.54955l49,-38l-2,30l-29,21v19l15,-13v22l-14,12v18l31,-29v45l-52,33l5,-22" fill="#4e00ff" stroke="#000000" stroke-width="2" stroke-linecap="round"/><path d="M180.77177,80.15241l54.05406,-12.01202l1.5015,97.5976l-39.03904,15.01501l-22.52252,-18.01802z" fill="#4e00ff" stroke="#000000" stroke-width="2" stroke-linecap="round"/><path d="M215.30631,96.66893v45.04504l-15.01502,15.01501l-7.50751,-16.51651v-51.05106z" fill="#ffffff" stroke="#000000" stroke-width="2" stroke-linecap="round"/><path d="M236.41291,96.29955l21,-24l9,72l15,-74l33,14l-47,95z" fill="#4e00ff" stroke="#000000" stroke-width="2" stroke-linecap="round"/><path d="M305.95646,102.75l32,-23l6,31l-39,20l-1,17l29,-16v20l-27,14v10l33,-12l3,32l-63,-1v-38" fill="#4e00ff" stroke="#000000" stroke-width="2" stroke-linecap="round"/><path d="M339.95646,111.75l2,75l18,4l-4,-37l26,31l28,-4l-57,-49l37,-5l-13,-54l-37,18" fill="#4e00ff" stroke="#000000" stroke-width="2" stroke-linecap="round"/><path d="M352.95646,100.75v14l17,-2l-1,-24z" fill="#ffffff" stroke="#000000" stroke-width="2" stroke-linecap="round"/><path d="M36.67641,171.0368c0.01239,0.01915 0.03635,0.00857 0.07359,-0.0368zM36.75248,170.5c0.99752,0.00165 0.99752,1 0.99752,1l-1,1.5c-3.60028,-0.66875 -1.61104,-5.00945 -0.39443,-7.44721c0,0 0.44721,-0.89443 1.34164,-0.44721c0.89443,0.44721 0.44721,1.34164 0.44721,1.34164c-0.34851,0.69562 -1.13128,2.99207 -1.39195,4.05279z" fill="#000000" stroke="none" stroke-width="0.5" stroke-linecap="butt"/><path d="M18.25,116.5l18,53" fill="none" stroke="#000000" stroke-width="2" stroke-linecap="round"/></g></g></svg>