<svg version="1.1" xmlns="http://www.w3.org/2000/svg" xmlns:xlink="http://www.w3.org/1999/xlink" width="347.36365" height="67.18012" viewBox="0,0,347.36365,67.18012"><g transform="translate(-5.34855,-54)"><g data-paper-data="{&quot;isPaintingLayer&quot;:true}" fill-rule="nonzero" stroke="none" stroke-linecap="butt" stroke-linejoin="miter" stroke-miterlimit="10" stroke-dasharray="" stroke-dashoffset="0" style="mix-blend-mode: normal"><text transform="translate(85.5,109) scale(0.99503,0.99503)" font-size="40" xml:space="preserve" fill="#4f00ff" fill-rule="nonzero" stroke="none" stroke-width="1" stroke-linecap="butt" stroke-linejoin="miter" stroke-miterlimit="10" stroke-dasharray="" stroke-dashoffset="0" font-family="Marker" font-weight="normal" text-anchor="start" style="mix-blend-mode: normal"><tspan x="0" dy="0">CRAZY DRIVER</tspan></text><path d="M17.58149,88.30579c0.86541,-3.45056 5.74624,-5.00679 8.22925,-6.22554c1.61244,0.04937 3.32772,-0.42068 4.83731,0.14811c4.14336,1.56116 6.97807,7.84572 5.62359,11.91969c-0.3965,1.19258 -1.70895,1.84528 -2.50528,2.81755c-0.90967,1.11065 -1.73301,2.28933 -2.60902,3.42671c-0.23959,0.31108 -0.8959,0.5591 -0.73759,0.91842c0.26544,0.60246 1.30023,0.54355 1.63221,1.11207c2.78827,4.77501 2.14776,13.23007 -3.07386,16.18779c-2.77689,1.57294 -10.62127,3.39948 -13.62615,2.16104c-2.93408,-1.20926 -4.36073,-4.93276 -4.21971,-8.54972c-1.80697,-0.15427 -3.54778,-0.85144 -4.99686,-2.37568c-0.80871,-0.85066 -0.63538,-7.56881 -0.63538,-8.84624c0,-3.48715 -1.02245,-9.84234 2.24587,-12.43373c0.99767,-0.79103 7.83392,-0.63015 9.83562,-0.26048z" fill="#a2a2a2" stroke-width="0.5"/><path d="M60.84164,77.31672c2.68328,1.34164 1.34164,4.02492 1.34164,4.02492l-0.68328,0.65836c-0.03924,1.80398 0.29063,2.9958 -0.17412,3.90471c2.57466,-0.11216 8.8814,0.58621 9.29544,0.97397c1.38751,1.29945 0.66086,3.74824 0.83994,5.64077c0.03351,0.35412 -0.52996,0.89747 -0.20713,1.04682c0.41402,0.19153 0.79283,-0.51286 1.24587,-0.56627c2.53725,-0.29914 7.88887,0.28162 9.36462,2.15376c3.82263,4.84944 -2.06141,8.79379 -4.78742,11.39819c-1,0.33333 -2.09612,0.45767 -3,1c-2.69376,1.61626 -2.90352,6.1425 -8.33132,2.88177c-1.59291,-0.95693 -0.99757,-3.59215 -1.24587,-5.43373c-0.11768,-0.87279 -0.13653,-1.76487 -0.06379,-2.64606c-1.09132,0.76815 -3.03994,1.23571 -4.24695,1.5658c-1.97271,0.5395 -8.16214,0.57615 -10.16981,0.04152c-1.74669,-0.46514 -3.8685,-0.76119 -4.95318,-2.20713c-2.00924,-2.67844 0.09704,-6.50519 0.4562,-9.12068c0.21703,-1.58048 -0.34548,-3.2845 0.20588,-4.7815c1.20621,-3.27493 6.3721,-6.50965 9.10754,-8.3481c0,0 0.83533,-0.55688 1.86168,-0.54313l0.11914,-0.30236c0,0 1.34164,-2.68328 4.02492,-1.34164z" fill="#707070" stroke-width="0.5"/><path d="M46.5,56.99939c1.84345,0.00045 4.29627,0.00443 4.36655,0.02309c5.8235,1.54593 9.28124,2.16348 4.75477,9.09884c-1.08172,1.65739 -4.66738,0.48796 -5.4763,2.29425c-0.37267,0.83217 0.56614,1.9336 0.12661,2.73248c-0.82341,1.49662 -1.96852,3.20094 -3.62359,3.62359c-2.15096,0.54928 -5.08588,0.62281 -6.58178,-1.01751c-1.75735,-1.927 0.91978,-5.92107 1.54258,-7.95333c0.34456,-1.12434 -2.52101,0.45742 -3.52443,-0.15578c-1.21038,-0.73968 -1.72594,-2.24228 -2.58966,-3.37629l-2.62015,-1.74677c-0.8271,-0.53416 -1.37461,-1.46412 -1.37461,-2.52196c0,-1.34952 0.89107,-2.49092 2.11694,-2.86793l2.93437,-0.97812l0.05165,0.15495l0.41649,-0.27016c2.16009,-0.02404 4.32033,-0.03874 6.48055,-0.03874c0,0 2.99959,0 3,2.99939zM47.02842,63.28456c0.12975,-0.09918 0.26293,-0.1941 0.39929,-0.28444c-0.18903,0.00029 -0.37869,0.00051 -0.5656,0.00066c0.0596,0.09391 0.11501,0.18847 0.16631,0.28379z" fill="#535353" stroke-width="0.5"/></g></g></svg>