<svg version="1.1" xmlns="http://www.w3.org/2000/svg" xmlns:xlink="http://www.w3.org/1999/xlink" width="323.31832" height="262.25173" viewBox="0,0,323.31832,262.25173"><g transform="translate(-56.22823,-72.3949)"><g data-paper-data="{&quot;isPaintingLayer&quot;:true}" fill-rule="nonzero" stroke-width="5" stroke-linejoin="miter" stroke-miterlimit="10" stroke-dasharray="" stroke-dashoffset="0" style="mix-blend-mode: normal"><path d="M58.72823,181.5015v-106.6066h318.31832v106.6066z" fill="#9966ff" stroke="#000000" stroke-linecap="butt"/><path d="M115,96.73724l-1,63l19,-1v-28l24,-1v-35z" fill="#ffffff" stroke="#000000" stroke-linecap="round"/><path d="M178,96.73724l-1,55l45,-4v-15l-30,-1v-40z" fill="#ffffff" stroke="#000000" stroke-linecap="round"/><path d="M239,94.73724l-1,52l13,-3l1,-32l8,-1v45l17,3l-2,-72l-36,-1z" fill="#ffffff" stroke="#000000" stroke-linecap="round"/><path d="M205,93.73724l12,1" fill="none" stroke="#000000" stroke-linecap="round"/><path d="M305,84.73724l-14,3l17,31l-1,22h13l-2,-23l19,-26l-13,-2l-12,11z" fill="#ffffff" stroke="#000000" stroke-linecap="round"/><path d="M98,113.73724h12" fill="none" stroke="#000000" stroke-linecap="round"/><path d="M317,160.73724h15" fill="none" stroke="#000000" stroke-linecap="round"/><path d="M348,137.73724l7,1" fill="none" stroke="#000000" stroke-linecap="round"/><path d="M83,149.73724h14" fill="none" stroke="#000000" stroke-linecap="round"/><path d="M131,110.73724l14,1" fill="none" stroke="#000000" stroke-linecap="round"/><path d="M247,98.73724l10,1" fill="none" stroke="#000000" stroke-linecap="round"/><path d="M167,238.73724l34,-30l61,14l-3,30l-15,-3l23,27l17,-25l-13,1l3,-44l-34,-9l-19,-4l-59,-1l-22,38z" fill="#ffad00" stroke="#000000" stroke-linecap="round"/><path d="M272,306.73724l-34,-18l-30,25l-37,-39l19,-12l-48,-7l-13,29l23,-7l51,54z" fill="#ffad00" stroke="#000000" stroke-linecap="round"/><path d="M162,219.73724l12,-11" fill="none" stroke="#e8cece" stroke-linecap="round"/><path d="M228,203.73724l13,4" fill="none" stroke="#e8cece" stroke-linecap="round"/><path d="M262,255.73724l4,12" fill="none" stroke="#e8cece" stroke-linecap="round"/><path d="M231,303.73724l-10,11" fill="none" stroke="#e8cece" stroke-linecap="round"/><path d="M152,268.73724l11,-3" fill="none" stroke="#e8cece" stroke-linecap="round"/></g></g></svg>